<?xml version="1.0" standalone="no"?>
<!DOCTYPE svg PUBLIC "-//W3C//DTD SVG 20010904//EN"
 "http://www.w3.org/TR/2001/REC-SVG-20010904/DTD/svg10.dtd">
<svg version="1.0" xmlns="http://www.w3.org/2000/svg"
 width="180.000000pt" height="180.000000pt" viewBox="0 0 180.000000 180.000000"
 preserveAspectRatio="xMidYMid meet">

<g transform="translate(0.000000,180.000000) scale(0.100000,-0.100000)"
fill="#000000" stroke="none">
<path d="M351 1526 c-53 -30 -66 -97 -26 -144 30 -36 69 -45 114 -26 22 9 72
14 145 14 100 0 118 -3 163 -25 178 -89 169 -345 -16 -422 -18 -8 -71 -17
-117 -20 l-84 -6 -2 179 -3 179 -77 3 -78 3 0 -257 0 -257 173 6 c193 6 246
18 324 70 65 45 105 102 187 262 37 74 71 135 75 135 13 0 172 -352 166 -368
-3 -8 -1 -30 6 -49 29 -89 177 -80 195 11 7 39 -6 69 -45 106 -16 15 -79 142
-160 318 -162 355 -153 348 -240 180 -54 -105 -56 -107 -71 -85 -41 61 -114
126 -173 152 -55 25 -79 29 -212 36 -82 4 -166 10 -185 13 -21 4 -44 1 -59 -8z"/>
<path d="M478 671 c-43 -6 -78 -21 -49 -21 7 0 9 -5 6 -10 -5 -8 -11 -8 -19
-1 -25 21 -100 -83 -90 -124 4 -15 2 -25 -5 -25 -6 0 -11 -13 -11 -30 0 -16 5
-30 10 -30 6 0 10 -6 8 -12 -3 -18 20 -58 34 -58 6 0 4 8 -5 18 -10 10 -17 23
-17 28 0 5 5 2 11 -6 8 -11 12 -12 16 -2 2 6 9 12 15 12 7 0 6 -5 -1 -14 -10
-11 -10 -20 -1 -37 11 -20 10 -21 -6 -15 -15 5 -13 1 7 -19 14 -14 38 -28 54
-31 16 -3 32 -8 35 -12 9 -12 121 -12 113 1 -4 6 -1 8 9 5 8 -4 21 -2 29 3 11
7 9 9 -8 9 -13 0 -23 5 -23 10 0 6 -4 10 -10 10 -5 0 -10 -6 -10 -14 0 -7 -14
-16 -32 -20 -41 -8 -49 0 -9 9 17 4 31 12 31 20 0 13 48 30 58 20 3 -3 -3 -5
-14 -5 -16 0 -16 -2 -4 -10 9 -6 18 -6 24 0 13 13 29 13 21 0 -11 -17 3 -11
30 14 17 16 22 27 15 31 -7 4 -10 16 -7 26 3 11 1 17 -4 13 -5 -3 -9 -1 -9 4
0 16 -32 23 -47 11 -8 -7 -10 -15 -6 -18 23 -17 34 -39 22 -47 -8 -5 -9 -3 -4
6 6 10 4 12 -8 7 -8 -3 -21 1 -27 8 -7 8 -16 12 -21 10 -4 -3 -12 3 -18 12 -8
14 -11 15 -11 3 -1 -10 -4 -9 -10 5 -7 16 -9 13 -9 -17 -1 -35 -3 -38 -29 -38
-21 0 -28 -5 -28 -20 0 -13 7 -20 21 -21 20 0 20 0 0 -9 -13 -5 -26 -3 -36 6
-9 8 -22 12 -30 9 -17 -6 -49 14 -33 21 6 3 19 11 29 18 15 11 16 15 4 34 -8
12 -17 22 -22 22 -4 0 -17 9 -29 20 -12 10 -26 17 -31 13 -6 -4 -7 -1 -2 7 4
7 2 16 -5 20 -8 5 -9 10 -2 14 6 3 13 -2 17 -13 3 -11 13 -22 22 -26 15 -5 15
-4 1 12 -21 25 -30 63 -12 56 8 -3 25 9 40 26 15 18 29 29 32 27 3 -3 11 -1
17 4 9 8 14 6 19 -5 8 -22 21 -18 34 10 12 26 47 34 55 13 4 -10 7 -10 18 0
16 15 29 16 29 2 0 -5 -5 -9 -11 -7 -6 1 -14 -5 -17 -13 -2 -8 -1 -12 3 -7 10
9 45 -21 45 -38 0 -7 11 -12 25 -12 14 0 24 2 21 4 -2 3 2 19 9 36 11 27 11
35 -1 52 -12 16 -14 16 -14 2 0 -13 -5 -11 -25 8 -13 14 -30 25 -36 25 -7 0
-9 3 -6 6 4 4 18 -1 32 -10 14 -9 25 -13 25 -8 0 13 -72 46 -105 48 -16 1 -51
-2 -77 -5z m110 -13 c-2 -6 -10 -14 -16 -16 -7 -2 -10 2 -6 12 7 18 28 22 22
4z m-108 -28 c0 -5 -5 -10 -11 -10 -5 0 -7 5 -4 10 3 6 8 10 11 10 2 0 4 -4 4
-10z m-37 -17 c-7 -2 -21 -2 -30 0 -10 3 -4 5 12 5 17 0 24 -2 18 -5z m187 -3
c18 -12 2 -12 -25 0 -13 6 -15 9 -5 9 8 0 22 -4 30 -9z m-234 -11 c3 -6 17 -8
30 -5 14 4 24 2 24 -4 0 -6 -4 -8 -10 -5 -5 3 -10 1 -10 -5 0 -7 -7 -7 -22 2
-13 7 -26 11 -30 10 -5 -1 -8 3 -8 8 0 13 17 13 26 -1z m-40 -55 c-10 -14 -20
-23 -23 -21 -2 3 3 17 13 31 9 15 19 24 22 22 2 -3 -3 -17 -12 -32z m314 25
c0 8 2 12 5 9 3 -3 2 -13 -1 -22 -5 -14 -9 -15 -15 -4 -5 7 -9 18 -9 23 0 6 5
3 10 -5 8 -12 10 -12 10 -1z m-280 -19 c0 -5 -5 -10 -11 -10 -5 0 -7 5 -4 10
3 6 8 10 11 10 2 0 4 -4 4 -10z m260 -146 c0 -8 -4 -12 -10 -9 -5 3 -10 10
-10 16 0 5 5 9 10 9 6 0 10 -7 10 -16z m-220 -34 c0 -16 -26 -5 -27 12 -2 16
1 17 13 8 8 -7 14 -16 14 -20z m147 -6 c-3 -3 -12 -4 -19 -1 -8 3 -5 6 6 6 11
1 17 -2 13 -5z m98 -14 c-3 -5 -11 -10 -16 -10 -6 0 -7 5 -4 10 3 6 11 10 16
10 6 0 7 -4 4 -10z m-138 -26 c-3 -3 -12 -4 -19 -1 -8 3 -5 6 6 6 11 1 17 -2
13 -5z"/>
<path d="M463 500 c-28 -25 -28 -29 -5 -47 9 -8 11 -12 5 -8 -9 4 -11 1 -6
-11 5 -14 8 -12 20 10 8 15 13 38 11 52 l-3 25 -22 -21z m17 -20 c0 -5 -4 -10
-10 -10 -5 0 -10 5 -10 10 0 6 5 10 10 10 6 0 10 -4 10 -10z"/>
<path d="M546 495 c-3 -9 1 -30 9 -48 9 -18 13 -24 11 -15 -3 9 0 18 6 20 7 3
9 15 4 31 -7 30 -21 35 -30 12z"/>
<path d="M609 491 c9 -6 11 -16 7 -27 -6 -15 -4 -16 5 -7 14 14 5 43 -13 43
-10 0 -9 -3 1 -9z"/>
<path d="M651 492 c0 -4 4 -16 8 -26 7 -19 8 -19 13 1 4 14 0 24 -8 27 -8 3
-14 2 -13 -2z"/>
<path d="M450 379 c0 -5 5 -7 10 -4 6 3 10 8 10 11 0 2 -4 4 -10 4 -5 0 -10
-5 -10 -11z"/>
<path d="M605 380 c3 -5 8 -10 11 -10 2 0 4 5 4 10 0 6 -5 10 -11 10 -5 0 -7
-4 -4 -10z"/>
<path d="M433 347 c-13 -5 -23 -14 -23 -19 0 -13 18 -10 23 5 4 9 8 8 16 -3
13 -18 26 -7 14 13 -6 11 -13 12 -30 4z"/>
</g>
</svg>
